<svg id="visual" viewBox="0 0 900 600" width="900" height="600" xmlns="http://www.w3.org/2000/svg" xmlns:xlink="http://www.w3.org/1999/xlink" version="1.1"><rect width="900" height="600" fill="#001829"></rect><g><g transform="translate(851 291)"><path d="M0 -138.2L88.9 -105.9L136.1 -24L119.7 69.1L47.3 129.9L-47.3 129.9L-119.7 69.1L-136.1 -24L-88.9 -105.9Z" fill="#297EA6"></path></g><g transform="translate(127 547)"><path d="M0 -123L79.1 -94.2L121.1 -21.4L106.5 61.5L42.1 115.6L-42.1 115.6L-106.5 61.5L-121.1 -21.4L-79.1 -94.2Z" fill="#297EA6"></path></g><g transform="translate(304 302)"><path d="M0 -87L55.9 -66.6L85.7 -15.1L75.3 43.5L29.8 81.8L-29.8 81.8L-75.3 43.5L-85.7 -15.1L-55.9 -66.6Z" fill="#297EA6"></path></g><g transform="translate(687 525)"><path d="M0 -110L70.7 -84.3L108.3 -19.1L95.3 55L37.6 103.4L-37.6 103.4L-95.3 55L-108.3 -19.1L-70.7 -84.3Z" fill="#297EA6"></path></g><g transform="translate(74 10)"><path d="M0 -101L64.9 -77.4L99.5 -17.5L87.5 50.5L34.5 94.9L-34.5 94.9L-87.5 50.5L-99.5 -17.5L-64.9 -77.4Z" fill="#297EA6"></path></g></g></svg>